<?xml version="1.0" encoding="UTF-8" standalone="no"?><!DOCTYPE svg PUBLIC "-//W3C//DTD SVG 1.1//EN" "http://www.w3.org/Graphics/SVG/1.1/DTD/svg11.dtd"><svg width="100%" height="100%" viewBox="0 0 512 512" version="1.1" xmlns="http://www.w3.org/2000/svg" xmlns:xlink="http://www.w3.org/1999/xlink" xml:space="preserve" xmlns:serif="http://www.serif.com/" style="fill-rule:evenodd;clip-rule:evenodd;stroke-linejoin:round;stroke-miterlimit:1.41421;"><g id="Icon"><path d="M106.877,173.855c-15.19,-5.356 -20.377,2.618 -23.564,10.149l-25.707,60.957l-24.522,-61.173c-4.023,-8.258 -10.754,-14.041 -23.347,-9.822c-13.657,4.566 -9.201,18.554 -8.432,21.182l38.463,88.05l-15.1,33.001c-2.007,4.429 -5.63,16.722 7.842,21.983c13.488,5.256 19.672,-2.459 24.074,-11.471l58.693,-131.668c0,0 7.289,-15.642 -8.4,-21.188Z" style="fill-rule:nonzero;"/><path d="M159.981,183.056c-29.646,0 -53.684,23.574 -53.684,52.646c0,29.078 20.604,52.662 53.684,52.662c35.587,0 53.668,-23.584 53.668,-52.662c-0.005,-29.072 -24.037,-52.646 -53.668,-52.646Zm0,81.571c-13.23,0 -23.943,-12.577 -23.943,-28.066c0,-15.511 10.713,-28.072 23.943,-28.072c13.204,0 23.927,12.561 23.927,28.072c-0.006,15.489 -10.734,28.066 -23.927,28.066Z" style="fill-rule:nonzero;"/><path d="M298.233,186.011c-9.175,0.6 -13.852,5.977 -14.479,15.921l-0.015,48.859c-0.511,10.413 -7.479,17.549 -19.108,17.844c-17.243,0.432 -19.582,-11.876 -19.555,-16.264l0.036,-49.028c-0.389,-9.796 -4.887,-14.72 -13.756,-15.105c-9.517,0.69 -14.552,6.168 -15.174,16.096l-0.063,48.712c0.195,6.104 -0.743,37.551 48.422,36.861c27.645,-0.358 47.053,-15.105 48.354,-40.016l0.116,-49.028c-0.453,-9.833 -5.314,-14.647 -14.778,-14.852Z" style="fill-rule:nonzero;"/><path d="M497.273,186.78c-9.169,0.331 -14.168,5.619 -14.541,15.442l0,48.78c-0.538,10.312 -8.648,17.027 -19.25,17.027c-11.145,0 -18.75,-6.725 -19.287,-17.027l-0.084,-48.78c-0.517,-9.818 -5.046,-15.148 -14.057,-15.474c-9.976,0 -14.547,5.688 -15.063,15.51l0,48.807c1.043,24.533 17.132,37.426 48.406,37.921c31.464,-0.495 47.253,-13.357 48.607,-37.989l0,-48.781c-0.532,-9.812 -5.525,-15.099 -14.731,-15.436Z" style="fill-rule:nonzero;"/><path d="M380.036,236.487l25.965,-22.615c0,0 12.84,-12.209 1.59,-22.916c-8.258,-7.884 -18.786,-3.36 -22.584,0.126l-37.894,35.809l-0.205,-25.928c-0.237,-8.732 -5.156,-14.289 -15.332,-14.289c-10.47,0 -14.783,5.241 -15.31,14.268l0,74.382c0.537,8.669 5.762,12.893 15.352,12.893c10.013,0.042 15.021,-4.551 15.427,-12.841l0.037,-27.666c0,0 39.974,33.802 42.155,35.661c6.441,5.283 17.001,4.719 22.257,-0.326c5.556,-5.341 4.25,-16.295 -2.449,-21.968l-29.009,-24.59Z" style="fill-rule:nonzero;"/></g></svg>